<svg width="79" height="65" viewBox="0 0 79 65" fill="none" xmlns="http://www.w3.org/2000/svg">
<path fill-rule="evenodd" clip-rule="evenodd" d="M42.2925 57.5477L62.0425 41.2977C63.5869 40.027 63.5869 37.973 62.0425 36.7023C60.498 35.4315 58.0016 35.4315 56.4572 36.7023L43.4498 47.4045V9.75C43.4498 7.95275 41.6842 6.5 39.4998 6.5C37.3155 6.5 35.5498 7.95275 35.5498 9.75V47.4045L22.5425 36.7023C20.998 35.4315 18.5016 35.4315 16.9572 36.7023C16.1869 37.336 15.7998 38.168 15.7998 39C15.7998 39.832 16.1869 40.664 16.9572 41.2977L36.7072 57.5477C38.2516 58.8185 40.748 58.8185 42.2925 57.5477" fill="#5C5F62"/>
</svg>
